/* XPM */
static char * doorcancel_xpm[] = {
"18 18 2 1",
" 	c #171515",
".	c #F12828",
"                  ",
"                  ",
"                  ",
"                  ",
"      ........    ",
"      ........    ",
"      ........    ",
"      ........    ",
"      ........    ",
"      ........    ",
"      ........    ",
"      ........    ",
"      ........    ",
"      ........    ",
"      ........    ",
"      ........    ",
"      ........    ",
"      ........    "};
