/* XPM */
static char * white_open_xpm[] = {
"18 18 2 1",
" 	c #171515",
".	c #FFFFFF",
"                  ",
"                  ",
"                  ",
"                  ",
"      ........    ",
"      ........    ",
"      ........    ",
"      ........    ",
"      ........    ",
"      ........    ",
"      ........    ",
"      ........    ",
"      ........    ",
"      ........    ",
"      ........    ",
"      ........    ",
"      ........    ",
"      ........    "};
