/* XPM */
static char * yellow_xpm[] = {
"18 18 5 1",
" 	c #FFFFFF",
".	c #676230",
"+	c #A08A4A",
"@	c #FFE681",
"#	c #CCB751",
"                  ",
"       .++.       ",
"     .+@@@@+.     ",
"    +#@@@#@@#+    ",
"   .@@@####@@@+   ",
"  .#@@@@#@@@@@#.  ",
"  .@@@#++++#@@@+  ",
" .+@#@+....+@@#@. ",
" .+##@+....+####. ",
" .+@##+....+@#@#. ",
" .+@#@+....+@@@@. ",
"  .#@@#++++#@@@.  ",
"  .+@@@@@@#@@@+.  ",
"   .+#@@##@@#+.   ",
"    .+#@@#@#+.    ",
"     ..++++..     ",
"       ....       ",
"                  "};
